<?xml version="1.0" encoding="utf-8" standalone="no"?>
<!DOCTYPE svg PUBLIC "-//W3C//DTD SVG 1.1//EN"
  "http://www.w3.org/Graphics/SVG/1.1/DTD/svg11.dtd">
<svg xmlns:xlink="http://www.w3.org/1999/xlink" width="576pt" height="295.2pt" viewBox="0 0 576 295.2" xmlns="http://www.w3.org/2000/svg" version="1.1">
 <metadata>
  <rdf:RDF xmlns:dc="http://purl.org/dc/elements/1.1/" xmlns:cc="http://creativecommons.org/ns#" xmlns:rdf="http://www.w3.org/1999/02/22-rdf-syntax-ns#">
   <cc:Work>
    <dc:type rdf:resource="http://purl.org/dc/dcmitype/StillImage"/>
    <dc:format>image/svg+xml</dc:format>
    <dc:creator>
     <cc:Agent>
      <dc:title>OpenEconometrics Teaching Labs</dc:title>
     </cc:Agent>
    </dc:creator>
   </cc:Work>
  </rdf:RDF>
 </metadata>
 <defs>
  <style type="text/css">*{stroke-linejoin: round; stroke-linecap: butt}</style>
 <style>text{font-family:Arial,Helvetica,sans-serif!important}</style></defs>
 <g id="figure_1">
  <g id="patch_1">
   <path d="M 0 295.2
L 576 295.2
L 576 0
L 0 0
z
" style="fill: #ffffff"/>
  </g>
  <g id="axes_1">
   <g id="patch_2">
    <path d="M 49.128365 261.84351
L 572.99976 261.84351
L 572.99976 16.598678
L 49.128365 16.598678
z
" style="fill: #ffffff"/>
   </g>
   <g id="matplotlib.axis_1">
    <g id="xtick_1">
     <g id="line2d_1">
      <defs>
       <path id="m5a94c8e676" d="M 0 0
L 0 3.5
" style="stroke: #142c43; stroke-width: 0.8"/>
      </defs>
      <g>
       <use xlink:href="#m5a94c8e676" x="64.729551" y="261.84351" style="fill: #142c43; stroke: #142c43; stroke-width: 0.8"/>
      </g>
     </g>
     <g id="text_1">
      <text style="font-size: 10px; font-family: 'DejaVu Sans'; text-anchor: middle; fill: #142c43" x="64.729551" y="276.441947" transform="rotate(-0 64.729551 276.441947)">0</text>
     </g>
    </g>
    <g id="xtick_2">
     <g id="line2d_2">
      <g>
       <use xlink:href="#m5a94c8e676" x="146.841055" y="261.84351" style="fill: #142c43; stroke: #142c43; stroke-width: 0.8"/>
      </g>
     </g>
     <g id="text_2">
      <text style="font-size: 10px; font-family: 'DejaVu Sans'; text-anchor: middle; fill: #142c43" x="146.841055" y="276.441947" transform="rotate(-0 146.841055 276.441947)">10</text>
     </g>
    </g>
    <g id="xtick_3">
     <g id="line2d_3">
      <g>
       <use xlink:href="#m5a94c8e676" x="228.952559" y="261.84351" style="fill: #142c43; stroke: #142c43; stroke-width: 0.8"/>
      </g>
     </g>
     <g id="text_3">
      <text style="font-size: 10px; font-family: 'DejaVu Sans'; text-anchor: middle; fill: #142c43" x="228.952559" y="276.441947" transform="rotate(-0 228.952559 276.441947)">20</text>
     </g>
    </g>
    <g id="xtick_4">
     <g id="line2d_4">
      <g>
       <use xlink:href="#m5a94c8e676" x="311.064063" y="261.84351" style="fill: #142c43; stroke: #142c43; stroke-width: 0.8"/>
      </g>
     </g>
     <g id="text_4">
      <text style="font-size: 10px; font-family: 'DejaVu Sans'; text-anchor: middle; fill: #142c43" x="311.064063" y="276.441947" transform="rotate(-0 311.064063 276.441947)">30</text>
     </g>
    </g>
    <g id="xtick_5">
     <g id="line2d_5">
      <g>
       <use xlink:href="#m5a94c8e676" x="393.175566" y="261.84351" style="fill: #142c43; stroke: #142c43; stroke-width: 0.8"/>
      </g>
     </g>
     <g id="text_5">
      <text style="font-size: 10px; font-family: 'DejaVu Sans'; text-anchor: middle; fill: #142c43" x="393.175566" y="276.441947" transform="rotate(-0 393.175566 276.441947)">40</text>
     </g>
    </g>
    <g id="xtick_6">
     <g id="line2d_6">
      <g>
       <use xlink:href="#m5a94c8e676" x="475.28707" y="261.84351" style="fill: #142c43; stroke: #142c43; stroke-width: 0.8"/>
      </g>
     </g>
     <g id="text_6">
      <text style="font-size: 10px; font-family: 'DejaVu Sans'; text-anchor: middle; fill: #142c43" x="475.28707" y="276.441947" transform="rotate(-0 475.28707 276.441947)">50</text>
     </g>
    </g>
    <g id="xtick_7">
     <g id="line2d_7">
      <g>
       <use xlink:href="#m5a94c8e676" x="557.398574" y="261.84351" style="fill: #142c43; stroke: #142c43; stroke-width: 0.8"/>
      </g>
     </g>
     <g id="text_7">
      <text style="font-size: 10px; font-family: 'DejaVu Sans'; text-anchor: middle; fill: #142c43" x="557.398574" y="276.441947" transform="rotate(-0 557.398574 276.441947)">60</text>
     </g>
    </g>
    <g id="text_8">
     <text style="font-size: 10px; font-family: 'DejaVu Sans'; text-anchor: middle; fill: #142c43" x="311.064063" y="290.120072" transform="rotate(-0 311.064063 290.120072)">Price (currency/unit)</text>
    </g>
   </g>
   <g id="matplotlib.axis_2">
    <g id="ytick_1">
     <g id="line2d_8">
      <path d="M 49.128365 233.199359
L 572.99976 233.199359
" clip-path="url(#p26462d8c91)" style="fill: none; stroke: #e8edf2; stroke-width: 0.6; stroke-linecap: square"/>
     </g>
     <g id="line2d_9">
      <defs>
       <path id="maf2c370dc3" d="M 0 0
L -3.5 0
" style="stroke: #142c43; stroke-width: 0.8"/>
      </defs>
      <g>
       <use xlink:href="#maf2c370dc3" x="49.128365" y="233.199359" style="fill: #142c43; stroke: #142c43; stroke-width: 0.8"/>
      </g>
     </g>
     <g id="text_9">
      <text style="font-size: 10px; font-family: 'DejaVu Sans'; text-anchor: end; fill: #142c43" x="42.128365" y="236.998578" transform="rotate(-0 42.128365 236.998578)">250</text>
     </g>
    </g>
    <g id="ytick_2">
     <g id="line2d_10">
      <path d="M 49.128365 200.061748
L 572.99976 200.061748
" clip-path="url(#p26462d8c91)" style="fill: none; stroke: #e8edf2; stroke-width: 0.6; stroke-linecap: square"/>
     </g>
     <g id="line2d_11">
      <g>
       <use xlink:href="#maf2c370dc3" x="49.128365" y="200.061748" style="fill: #142c43; stroke: #142c43; stroke-width: 0.8"/>
      </g>
     </g>
     <g id="text_10">
      <text style="font-size: 10px; font-family: 'DejaVu Sans'; text-anchor: end; fill: #142c43" x="42.128365" y="203.860967" transform="rotate(-0 42.128365 203.860967)">500</text>
     </g>
    </g>
    <g id="ytick_3">
     <g id="line2d_12">
      <path d="M 49.128365 166.924137
L 572.99976 166.924137
" clip-path="url(#p26462d8c91)" style="fill: none; stroke: #e8edf2; stroke-width: 0.6; stroke-linecap: square"/>
     </g>
     <g id="line2d_13">
      <g>
       <use xlink:href="#maf2c370dc3" x="49.128365" y="166.924137" style="fill: #142c43; stroke: #142c43; stroke-width: 0.8"/>
      </g>
     </g>
     <g id="text_11">
      <text style="font-size: 10px; font-family: 'DejaVu Sans'; text-anchor: end; fill: #142c43" x="42.128365" y="170.723355" transform="rotate(-0 42.128365 170.723355)">750</text>
     </g>
    </g>
    <g id="ytick_4">
     <g id="line2d_14">
      <path d="M 49.128365 133.786526
L 572.99976 133.786526
" clip-path="url(#p26462d8c91)" style="fill: none; stroke: #e8edf2; stroke-width: 0.6; stroke-linecap: square"/>
     </g>
     <g id="line2d_15">
      <g>
       <use xlink:href="#maf2c370dc3" x="49.128365" y="133.786526" style="fill: #142c43; stroke: #142c43; stroke-width: 0.8"/>
      </g>
     </g>
     <g id="text_12">
      <text style="font-size: 10px; font-family: 'DejaVu Sans'; text-anchor: end; fill: #142c43" x="42.128365" y="137.585744" transform="rotate(-0 42.128365 137.585744)">1000</text>
     </g>
    </g>
    <g id="ytick_5">
     <g id="line2d_16">
      <path d="M 49.128365 100.648914
L 572.99976 100.648914
" clip-path="url(#p26462d8c91)" style="fill: none; stroke: #e8edf2; stroke-width: 0.6; stroke-linecap: square"/>
     </g>
     <g id="line2d_17">
      <g>
       <use xlink:href="#maf2c370dc3" x="49.128365" y="100.648914" style="fill: #142c43; stroke: #142c43; stroke-width: 0.8"/>
      </g>
     </g>
     <g id="text_13">
      <text style="font-size: 10px; font-family: 'DejaVu Sans'; text-anchor: end; fill: #142c43" x="42.128365" y="104.448133" transform="rotate(-0 42.128365 104.448133)">1250</text>
     </g>
    </g>
    <g id="ytick_6">
     <g id="line2d_18">
      <path d="M 49.128365 67.511303
L 572.99976 67.511303
" clip-path="url(#p26462d8c91)" style="fill: none; stroke: #e8edf2; stroke-width: 0.6; stroke-linecap: square"/>
     </g>
     <g id="line2d_19">
      <g>
       <use xlink:href="#maf2c370dc3" x="49.128365" y="67.511303" style="fill: #142c43; stroke: #142c43; stroke-width: 0.8"/>
      </g>
     </g>
     <g id="text_14">
      <text style="font-size: 10px; font-family: 'DejaVu Sans'; text-anchor: end; fill: #142c43" x="42.128365" y="71.310522" transform="rotate(-0 42.128365 71.310522)">1500</text>
     </g>
    </g>
    <g id="ytick_7">
     <g id="line2d_20">
      <path d="M 49.128365 34.373692
L 572.99976 34.373692
" clip-path="url(#p26462d8c91)" style="fill: none; stroke: #e8edf2; stroke-width: 0.6; stroke-linecap: square"/>
     </g>
     <g id="line2d_21">
      <g>
       <use xlink:href="#maf2c370dc3" x="49.128365" y="34.373692" style="fill: #142c43; stroke: #142c43; stroke-width: 0.8"/>
      </g>
     </g>
     <g id="text_15">
      <text style="font-size: 10px; font-family: 'DejaVu Sans'; text-anchor: end; fill: #142c43" x="42.128365" y="38.172911" transform="rotate(-0 42.128365 38.172911)">1750</text>
     </g>
    </g>
    <g id="text_16">
     <text style="font-size: 10px; font-family: 'DejaVu Sans'; text-anchor: middle; fill: #142c43" x="10.598678" y="139.221094" transform="rotate(-90 10.598678 139.221094)">Revenue (currency/day)</text>
    </g>
   </g>
   <g id="line2d_22">
    <path d="M 72.940701 250.696018
L 81.151852 235.585267
L 89.363002 221.004718
L 97.574152 206.954371
L 105.785303 193.434226
L 113.996453 180.444282
L 122.207603 167.98454
L 130.418754 156.055
L 138.629904 144.655662
L 146.841055 133.786526
L 155.052205 123.447591
L 163.263355 113.638858
L 171.474506 104.360327
L 179.685656 95.611997
L 187.896807 87.39387
L 196.107957 79.705944
L 204.319107 72.54822
L 212.530258 65.920698
L 220.741408 59.823377
L 228.952559 54.256259
L 237.163709 49.219342
L 245.374859 44.712627
L 253.58601 40.736113
L 261.79716 37.289802
L 270.008311 34.373692
L 278.219461 31.987784
L 286.430611 30.132078
L 294.641762 28.806573
L 302.852912 28.011271
L 311.064063 27.74617
L 319.275213 28.011271
L 327.486363 28.806573
L 335.697514 30.132078
L 343.908664 31.987784
L 352.119814 34.373692
L 360.330965 37.289802
L 368.542115 40.736113
L 376.753266 44.712627
L 384.964416 49.219342
L 393.175566 54.256259
L 401.386717 59.823377
L 409.597867 65.920698
L 417.809018 72.54822
L 426.020168 79.705944
L 434.231318 87.39387
L 442.442469 95.611997
L 450.653619 104.360327
L 458.86477 113.638858
L 467.07592 123.447591
L 475.28707 133.786526
L 483.498221 144.655662
L 491.709371 156.055
L 499.920522 167.98454
L 508.131672 180.444282
L 516.342822 193.434226
L 524.553973 206.954371
L 532.765123 221.004718
L 540.976273 235.585267
L 549.187424 250.696018
" clip-path="url(#p26462d8c91)" style="fill: none; stroke: #326b9e; stroke-width: 1.7; stroke-linecap: square"/>
   </g>
   <g id="patch_3">
    <path d="M 49.128365 261.84351
L 49.128365 16.598678
" style="fill: none; stroke: #b8c5d2; stroke-width: 0.8; stroke-linejoin: miter; stroke-linecap: square"/>
   </g>
   <g id="patch_4">
    <path d="M 49.128365 261.84351
L 572.99976 261.84351
" style="fill: none; stroke: #b8c5d2; stroke-width: 0.8; stroke-linejoin: miter; stroke-linecap: square"/>
   </g>
   <g id="text_17">
    <text style="font-size: 10px; font-family: 'DejaVu Sans'; text-anchor: middle; fill: #142c43" x="311.064063" y="10.598678" transform="rotate(-0 311.064063 10.598678)">Point Elasticity and Total Revenue</text>
   </g>
  </g>
 </g>
 <defs>
  <clipPath id="p26462d8c91">
   <rect x="49.128365" y="16.598678" width="523.871395" height="245.244832"/>
  </clipPath>
 </defs>
</svg>
